<mxfile host="app.diagrams.net" modified="2024-03-27T13:35:54.535Z" agent="Mozilla/5.0 (X11; Linux x86_64) AppleWebKit/537.36 (KHTML, like Gecko) Chrome/123.0.0.0 Safari/537.36" etag="eFw9m8gz_GgCdunmRM9M" version="24.0.7" type="github">
  <diagram name="PÃ¡gina-1" id="Bm82kkWGtqgkZEn6zCBl">
    <mxGraphModel dx="880" dy="474" grid="1" gridSize="10" guides="1" tooltips="1" connect="1" arrows="1" fold="1" page="1" pageScale="1" pageWidth="1920" pageHeight="1200" math="0" shadow="0">
      <root>
        <mxCell id="0" />
        <mxCell id="1" parent="0" />
        <mxCell id="CNBqglWwDLXEw6zcQ5sN-1" value="Loja" style="swimlane;fontStyle=0;childLayout=stackLayout;horizontal=1;startSize=26;fillColor=none;horizontalStack=0;resizeParent=1;resizeParentMax=0;resizeLast=0;collapsible=1;marginBottom=0;whiteSpace=wrap;html=1;" parent="1" vertex="1">
          <mxGeometry x="850" y="380" width="340" height="658" as="geometry" />
        </mxCell>
        <mxCell id="CNBqglWwDLXEw6zcQ5sN-2" value="- nome : String" style="text;strokeColor=none;fillColor=none;align=left;verticalAlign=top;spacingLeft=4;spacingRight=4;overflow=hidden;rotatable=0;points=[[0,0.5],[1,0.5]];portConstraint=eastwest;whiteSpace=wrap;html=1;" parent="CNBqglWwDLXEw6zcQ5sN-1" vertex="1">
          <mxGeometry y="26" width="340" height="26" as="geometry" />
        </mxCell>
        <mxCell id="CNBqglWwDLXEw6zcQ5sN-3" value="- endereco : String" style="text;strokeColor=none;fillColor=none;align=left;verticalAlign=top;spacingLeft=4;spacingRight=4;overflow=hidden;rotatable=0;points=[[0,0.5],[1,0.5]];portConstraint=eastwest;whiteSpace=wrap;html=1;" parent="CNBqglWwDLXEw6zcQ5sN-1" vertex="1">
          <mxGeometry y="52" width="340" height="26" as="geometry" />
        </mxCell>
        <mxCell id="CNBqglWwDLXEw6zcQ5sN-4" value="- listaJogos : Produtos[]" style="text;strokeColor=none;fillColor=none;align=left;verticalAlign=top;spacingLeft=4;spacingRight=4;overflow=hidden;rotatable=0;points=[[0,0.5],[1,0.5]];portConstraint=eastwest;whiteSpace=wrap;html=1;" parent="CNBqglWwDLXEw6zcQ5sN-1" vertex="1">
          <mxGeometry y="78" width="340" height="26" as="geometry" />
        </mxCell>
        <mxCell id="CNBqglWwDLXEw6zcQ5sN-5" value="- listaConsumidores : Consumidores[]" style="text;strokeColor=none;fillColor=none;align=left;verticalAlign=top;spacingLeft=4;spacingRight=4;overflow=hidden;rotatable=0;points=[[0,0.5],[1,0.5]];portConstraint=eastwest;whiteSpace=wrap;html=1;" parent="CNBqglWwDLXEw6zcQ5sN-1" vertex="1">
          <mxGeometry y="104" width="340" height="26" as="geometry" />
        </mxCell>
        <mxCell id="CNBqglWwDLXEw6zcQ5sN-62" value="- listaVendas : Venda[]" style="text;strokeColor=none;fillColor=none;align=left;verticalAlign=top;spacingLeft=4;spacingRight=4;overflow=hidden;rotatable=0;points=[[0,0.5],[1,0.5]];portConstraint=eastwest;whiteSpace=wrap;html=1;" parent="CNBqglWwDLXEw6zcQ5sN-1" vertex="1">
          <mxGeometry y="130" width="340" height="26" as="geometry" />
        </mxCell>
        <mxCell id="CNBqglWwDLXEw6zcQ5sN-6" value="" style="line;strokeWidth=1;fillColor=none;align=left;verticalAlign=middle;spacingTop=-1;spacingLeft=3;spacingRight=3;rotatable=0;labelPosition=right;points=[];portConstraint=eastwest;strokeColor=inherit;" parent="CNBqglWwDLXEw6zcQ5sN-1" vertex="1">
          <mxGeometry y="156" width="340" height="8" as="geometry" />
        </mxCell>
        <mxCell id="CNBqglWwDLXEw6zcQ5sN-9" value="+ getNome() : String" style="text;strokeColor=none;fillColor=none;align=left;verticalAlign=top;spacingLeft=4;spacingRight=4;overflow=hidden;rotatable=0;points=[[0,0.5],[1,0.5]];portConstraint=eastwest;whiteSpace=wrap;html=1;" parent="CNBqglWwDLXEw6zcQ5sN-1" vertex="1">
          <mxGeometry y="164" width="340" height="26" as="geometry" />
        </mxCell>
        <mxCell id="CNBqglWwDLXEw6zcQ5sN-10" value="+ setNome(nome : String) : void" style="text;strokeColor=none;fillColor=none;align=left;verticalAlign=top;spacingLeft=4;spacingRight=4;overflow=hidden;rotatable=0;points=[[0,0.5],[1,0.5]];portConstraint=eastwest;whiteSpace=wrap;html=1;" parent="CNBqglWwDLXEw6zcQ5sN-1" vertex="1">
          <mxGeometry y="190" width="340" height="26" as="geometry" />
        </mxCell>
        <mxCell id="CNBqglWwDLXEw6zcQ5sN-11" value="+ getEndereco() : String" style="text;strokeColor=none;fillColor=none;align=left;verticalAlign=top;spacingLeft=4;spacingRight=4;overflow=hidden;rotatable=0;points=[[0,0.5],[1,0.5]];portConstraint=eastwest;whiteSpace=wrap;html=1;" parent="CNBqglWwDLXEw6zcQ5sN-1" vertex="1">
          <mxGeometry y="216" width="340" height="26" as="geometry" />
        </mxCell>
        <mxCell id="CNBqglWwDLXEw6zcQ5sN-12" value="+ setEndereco(endereco : String) : void" style="text;strokeColor=none;fillColor=none;align=left;verticalAlign=top;spacingLeft=4;spacingRight=4;overflow=hidden;rotatable=0;points=[[0,0.5],[1,0.5]];portConstraint=eastwest;whiteSpace=wrap;html=1;" parent="CNBqglWwDLXEw6zcQ5sN-1" vertex="1">
          <mxGeometry y="242" width="340" height="26" as="geometry" />
        </mxCell>
        <mxCell id="CNBqglWwDLXEw6zcQ5sN-14" value="+ adicionarJogo (jogo : Jogo) : void" style="text;strokeColor=none;fillColor=none;align=left;verticalAlign=top;spacingLeft=4;spacingRight=4;overflow=hidden;rotatable=0;points=[[0,0.5],[1,0.5]];portConstraint=eastwest;whiteSpace=wrap;html=1;" parent="CNBqglWwDLXEw6zcQ5sN-1" vertex="1">
          <mxGeometry y="268" width="340" height="26" as="geometry" />
        </mxCell>
        <mxCell id="CNBqglWwDLXEw6zcQ5sN-15" value="+ getJogos() : Jogo[]" style="text;strokeColor=none;fillColor=none;align=left;verticalAlign=top;spacingLeft=4;spacingRight=4;overflow=hidden;rotatable=0;points=[[0,0.5],[1,0.5]];portConstraint=eastwest;whiteSpace=wrap;html=1;" parent="CNBqglWwDLXEw6zcQ5sN-1" vertex="1">
          <mxGeometry y="294" width="340" height="26" as="geometry" />
        </mxCell>
        <mxCell id="CNBqglWwDLXEw6zcQ5sN-16" value="+ adicionarConsumidor(consumidor : Consumidor) : void" style="text;strokeColor=none;fillColor=none;align=left;verticalAlign=top;spacingLeft=4;spacingRight=4;overflow=hidden;rotatable=0;points=[[0,0.5],[1,0.5]];portConstraint=eastwest;whiteSpace=wrap;html=1;" parent="CNBqglWwDLXEw6zcQ5sN-1" vertex="1">
          <mxGeometry y="320" width="340" height="26" as="geometry" />
        </mxCell>
        <mxCell id="CNBqglWwDLXEw6zcQ5sN-17" value="+ getConsumidores() : Consumidores[]" style="text;strokeColor=none;fillColor=none;align=left;verticalAlign=top;spacingLeft=4;spacingRight=4;overflow=hidden;rotatable=0;points=[[0,0.5],[1,0.5]];portConstraint=eastwest;whiteSpace=wrap;html=1;" parent="CNBqglWwDLXEw6zcQ5sN-1" vertex="1">
          <mxGeometry y="346" width="340" height="26" as="geometry" />
        </mxCell>
        <mxCell id="CNBqglWwDLXEw6zcQ5sN-18" value="+ qtdeConsumidores() : int" style="text;strokeColor=none;fillColor=none;align=left;verticalAlign=top;spacingLeft=4;spacingRight=4;overflow=hidden;rotatable=0;points=[[0,0.5],[1,0.5]];portConstraint=eastwest;whiteSpace=wrap;html=1;" parent="CNBqglWwDLXEw6zcQ5sN-1" vertex="1">
          <mxGeometry y="372" width="340" height="26" as="geometry" />
        </mxCell>
        <mxCell id="CNBqglWwDLXEw6zcQ5sN-19" value="+ qtdeEstoque(String : codigo) : int" style="text;strokeColor=none;fillColor=none;align=left;verticalAlign=top;spacingLeft=4;spacingRight=4;overflow=hidden;rotatable=0;points=[[0,0.5],[1,0.5]];portConstraint=eastwest;whiteSpace=wrap;html=1;" parent="CNBqglWwDLXEw6zcQ5sN-1" vertex="1">
          <mxGeometry y="398" width="340" height="26" as="geometry" />
        </mxCell>
        <mxCell id="CNBqglWwDLXEw6zcQ5sN-49" value="+ getJogoPorCodigo(codigo : String) : Jogo" style="text;strokeColor=none;fillColor=none;align=left;verticalAlign=top;spacingLeft=4;spacingRight=4;overflow=hidden;rotatable=0;points=[[0,0.5],[1,0.5]];portConstraint=eastwest;whiteSpace=wrap;html=1;" parent="CNBqglWwDLXEw6zcQ5sN-1" vertex="1">
          <mxGeometry y="424" width="340" height="26" as="geometry" />
        </mxCell>
        <mxCell id="CNBqglWwDLXEw6zcQ5sN-53" value="+ getJogoPorNome(nome : String) : Jogo[]" style="text;strokeColor=none;fillColor=none;align=left;verticalAlign=top;spacingLeft=4;spacingRight=4;overflow=hidden;rotatable=0;points=[[0,0.5],[1,0.5]];portConstraint=eastwest;whiteSpace=wrap;html=1;" parent="CNBqglWwDLXEw6zcQ5sN-1" vertex="1">
          <mxGeometry y="450" width="340" height="26" as="geometry" />
        </mxCell>
        <mxCell id="CNBqglWwDLXEw6zcQ5sN-54" value="+ getJogosPorDesenvolvedora(nome : String) : Jogo[]&amp;nbsp;" style="text;strokeColor=none;fillColor=none;align=left;verticalAlign=top;spacingLeft=4;spacingRight=4;overflow=hidden;rotatable=0;points=[[0,0.5],[1,0.5]];portConstraint=eastwest;whiteSpace=wrap;html=1;" parent="CNBqglWwDLXEw6zcQ5sN-1" vertex="1">
          <mxGeometry y="476" width="340" height="26" as="geometry" />
        </mxCell>
        <mxCell id="CNBqglWwDLXEw6zcQ5sN-55" value="+ removerConsumidor(consumidor : Consumidor) : void&lt;div&gt;&lt;br&gt;&lt;/div&gt;" style="text;strokeColor=none;fillColor=none;align=left;verticalAlign=top;spacingLeft=4;spacingRight=4;overflow=hidden;rotatable=0;points=[[0,0.5],[1,0.5]];portConstraint=eastwest;whiteSpace=wrap;html=1;" parent="CNBqglWwDLXEw6zcQ5sN-1" vertex="1">
          <mxGeometry y="502" width="340" height="26" as="geometry" />
        </mxCell>
        <mxCell id="CNBqglWwDLXEw6zcQ5sN-56" value="+ removerJogo(jogo : Jogo) : void" style="text;strokeColor=none;fillColor=none;align=left;verticalAlign=top;spacingLeft=4;spacingRight=4;overflow=hidden;rotatable=0;points=[[0,0.5],[1,0.5]];portConstraint=eastwest;whiteSpace=wrap;html=1;" parent="CNBqglWwDLXEw6zcQ5sN-1" vertex="1">
          <mxGeometry y="528" width="340" height="26" as="geometry" />
        </mxCell>
        <mxCell id="CNBqglWwDLXEw6zcQ5sN-59" value="+ vendaJogo(jogo : Jogo , cliente : Cliente, qtde : int) : Venda" style="text;strokeColor=none;fillColor=none;align=left;verticalAlign=top;spacingLeft=4;spacingRight=4;overflow=hidden;rotatable=0;points=[[0,0.5],[1,0.5]];portConstraint=eastwest;whiteSpace=wrap;html=1;" parent="CNBqglWwDLXEw6zcQ5sN-1" vertex="1">
          <mxGeometry y="554" width="340" height="26" as="geometry" />
        </mxCell>
        <mxCell id="CNBqglWwDLXEw6zcQ5sN-88" value="+ notaFiscal(cliente : Cliente) : void" style="text;strokeColor=none;fillColor=none;align=left;verticalAlign=top;spacingLeft=4;spacingRight=4;overflow=hidden;rotatable=0;points=[[0,0.5],[1,0.5]];portConstraint=eastwest;whiteSpace=wrap;html=1;" parent="CNBqglWwDLXEw6zcQ5sN-1" vertex="1">
          <mxGeometry y="580" width="340" height="26" as="geometry" />
        </mxCell>
        <mxCell id="Ngj1m-gb0Dm6TkO7yJsu-7" value="+ converterStringParaData(data : String) : Date&amp;nbsp;" style="text;strokeColor=none;fillColor=none;align=left;verticalAlign=top;spacingLeft=4;spacingRight=4;overflow=hidden;rotatable=0;points=[[0,0.5],[1,0.5]];portConstraint=eastwest;whiteSpace=wrap;html=1;" parent="CNBqglWwDLXEw6zcQ5sN-1" vertex="1">
          <mxGeometry y="606" width="340" height="26" as="geometry" />
        </mxCell>
        <mxCell id="Ngj1m-gb0Dm6TkO7yJsu-8" value="+ getClientePorCPF(CPF : String) : Cliente" style="text;strokeColor=none;fillColor=none;align=left;verticalAlign=top;spacingLeft=4;spacingRight=4;overflow=hidden;rotatable=0;points=[[0,0.5],[1,0.5]];portConstraint=eastwest;whiteSpace=wrap;html=1;" parent="CNBqglWwDLXEw6zcQ5sN-1" vertex="1">
          <mxGeometry y="632" width="340" height="26" as="geometry" />
        </mxCell>
        <mxCell id="CNBqglWwDLXEw6zcQ5sN-21" value="Jogo" style="swimlane;fontStyle=0;childLayout=stackLayout;horizontal=1;startSize=26;fillColor=none;horizontalStack=0;resizeParent=1;resizeParentMax=0;resizeLast=0;collapsible=1;marginBottom=0;whiteSpace=wrap;html=1;" parent="1" vertex="1">
          <mxGeometry x="490" y="380" width="290" height="424" as="geometry" />
        </mxCell>
        <mxCell id="CNBqglWwDLXEw6zcQ5sN-22" value="- nome : String" style="text;strokeColor=none;fillColor=none;align=left;verticalAlign=top;spacingLeft=4;spacingRight=4;overflow=hidden;rotatable=0;points=[[0,0.5],[1,0.5]];portConstraint=eastwest;whiteSpace=wrap;html=1;" parent="CNBqglWwDLXEw6zcQ5sN-21" vertex="1">
          <mxGeometry y="26" width="290" height="26" as="geometry" />
        </mxCell>
        <mxCell id="CNBqglWwDLXEw6zcQ5sN-25" value="- desenvolvedora : String" style="text;strokeColor=none;fillColor=none;align=left;verticalAlign=top;spacingLeft=4;spacingRight=4;overflow=hidden;rotatable=0;points=[[0,0.5],[1,0.5]];portConstraint=eastwest;whiteSpace=wrap;html=1;" parent="CNBqglWwDLXEw6zcQ5sN-21" vertex="1">
          <mxGeometry y="52" width="290" height="26" as="geometry" />
        </mxCell>
        <mxCell id="CNBqglWwDLXEw6zcQ5sN-23" value="- preco : Double" style="text;strokeColor=none;fillColor=none;align=left;verticalAlign=top;spacingLeft=4;spacingRight=4;overflow=hidden;rotatable=0;points=[[0,0.5],[1,0.5]];portConstraint=eastwest;whiteSpace=wrap;html=1;" parent="CNBqglWwDLXEw6zcQ5sN-21" vertex="1">
          <mxGeometry y="78" width="290" height="26" as="geometry" />
        </mxCell>
        <mxCell id="CNBqglWwDLXEw6zcQ5sN-24" value="- faixaEtaria : int" style="text;strokeColor=none;fillColor=none;align=left;verticalAlign=top;spacingLeft=4;spacingRight=4;overflow=hidden;rotatable=0;points=[[0,0.5],[1,0.5]];portConstraint=eastwest;whiteSpace=wrap;html=1;" parent="CNBqglWwDLXEw6zcQ5sN-21" vertex="1">
          <mxGeometry y="104" width="290" height="26" as="geometry" />
        </mxCell>
        <mxCell id="CNBqglWwDLXEw6zcQ5sN-50" value="- codigo : String" style="text;strokeColor=none;fillColor=none;align=left;verticalAlign=top;spacingLeft=4;spacingRight=4;overflow=hidden;rotatable=0;points=[[0,0.5],[1,0.5]];portConstraint=eastwest;whiteSpace=wrap;html=1;" parent="CNBqglWwDLXEw6zcQ5sN-21" vertex="1">
          <mxGeometry y="130" width="290" height="26" as="geometry" />
        </mxCell>
        <mxCell id="CNBqglWwDLXEw6zcQ5sN-26" value="" style="line;strokeWidth=1;fillColor=none;align=left;verticalAlign=middle;spacingTop=-1;spacingLeft=3;spacingRight=3;rotatable=0;labelPosition=right;points=[];portConstraint=eastwest;strokeColor=inherit;" parent="CNBqglWwDLXEw6zcQ5sN-21" vertex="1">
          <mxGeometry y="156" width="290" height="8" as="geometry" />
        </mxCell>
        <mxCell id="CNBqglWwDLXEw6zcQ5sN-27" value="+ getNome() : String" style="text;strokeColor=none;fillColor=none;align=left;verticalAlign=top;spacingLeft=4;spacingRight=4;overflow=hidden;rotatable=0;points=[[0,0.5],[1,0.5]];portConstraint=eastwest;whiteSpace=wrap;html=1;" parent="CNBqglWwDLXEw6zcQ5sN-21" vertex="1">
          <mxGeometry y="164" width="290" height="26" as="geometry" />
        </mxCell>
        <mxCell id="CNBqglWwDLXEw6zcQ5sN-28" value="+ setNome(nome : String) : void" style="text;strokeColor=none;fillColor=none;align=left;verticalAlign=top;spacingLeft=4;spacingRight=4;overflow=hidden;rotatable=0;points=[[0,0.5],[1,0.5]];portConstraint=eastwest;whiteSpace=wrap;html=1;" parent="CNBqglWwDLXEw6zcQ5sN-21" vertex="1">
          <mxGeometry y="190" width="290" height="26" as="geometry" />
        </mxCell>
        <mxCell id="CNBqglWwDLXEw6zcQ5sN-29" value="+ getDesenvolvedora() : String" style="text;strokeColor=none;fillColor=none;align=left;verticalAlign=top;spacingLeft=4;spacingRight=4;overflow=hidden;rotatable=0;points=[[0,0.5],[1,0.5]];portConstraint=eastwest;whiteSpace=wrap;html=1;" parent="CNBqglWwDLXEw6zcQ5sN-21" vertex="1">
          <mxGeometry y="216" width="290" height="26" as="geometry" />
        </mxCell>
        <mxCell id="CNBqglWwDLXEw6zcQ5sN-30" value="+ setDesenvolvedora(dev : String) : void" style="text;strokeColor=none;fillColor=none;align=left;verticalAlign=top;spacingLeft=4;spacingRight=4;overflow=hidden;rotatable=0;points=[[0,0.5],[1,0.5]];portConstraint=eastwest;whiteSpace=wrap;html=1;" parent="CNBqglWwDLXEw6zcQ5sN-21" vertex="1">
          <mxGeometry y="242" width="290" height="26" as="geometry" />
        </mxCell>
        <mxCell id="CNBqglWwDLXEw6zcQ5sN-31" value="+ getPreco() : Double" style="text;strokeColor=none;fillColor=none;align=left;verticalAlign=top;spacingLeft=4;spacingRight=4;overflow=hidden;rotatable=0;points=[[0,0.5],[1,0.5]];portConstraint=eastwest;whiteSpace=wrap;html=1;" parent="CNBqglWwDLXEw6zcQ5sN-21" vertex="1">
          <mxGeometry y="268" width="290" height="26" as="geometry" />
        </mxCell>
        <mxCell id="CNBqglWwDLXEw6zcQ5sN-32" value="+ setPreco(preco : Double) : void" style="text;strokeColor=none;fillColor=none;align=left;verticalAlign=top;spacingLeft=4;spacingRight=4;overflow=hidden;rotatable=0;points=[[0,0.5],[1,0.5]];portConstraint=eastwest;whiteSpace=wrap;html=1;" parent="CNBqglWwDLXEw6zcQ5sN-21" vertex="1">
          <mxGeometry y="294" width="290" height="26" as="geometry" />
        </mxCell>
        <mxCell id="CNBqglWwDLXEw6zcQ5sN-33" value="+ getFaixaEtaria() : int" style="text;strokeColor=none;fillColor=none;align=left;verticalAlign=top;spacingLeft=4;spacingRight=4;overflow=hidden;rotatable=0;points=[[0,0.5],[1,0.5]];portConstraint=eastwest;whiteSpace=wrap;html=1;" parent="CNBqglWwDLXEw6zcQ5sN-21" vertex="1">
          <mxGeometry y="320" width="290" height="26" as="geometry" />
        </mxCell>
        <mxCell id="CNBqglWwDLXEw6zcQ5sN-35" value="+ setFaixaEtaria(faixa : int) : void" style="text;strokeColor=none;fillColor=none;align=left;verticalAlign=top;spacingLeft=4;spacingRight=4;overflow=hidden;rotatable=0;points=[[0,0.5],[1,0.5]];portConstraint=eastwest;whiteSpace=wrap;html=1;" parent="CNBqglWwDLXEw6zcQ5sN-21" vertex="1">
          <mxGeometry y="346" width="290" height="26" as="geometry" />
        </mxCell>
        <mxCell id="CNBqglWwDLXEw6zcQ5sN-51" value="+ getCodigo() : String" style="text;strokeColor=none;fillColor=none;align=left;verticalAlign=top;spacingLeft=4;spacingRight=4;overflow=hidden;rotatable=0;points=[[0,0.5],[1,0.5]];portConstraint=eastwest;whiteSpace=wrap;html=1;" parent="CNBqglWwDLXEw6zcQ5sN-21" vertex="1">
          <mxGeometry y="372" width="290" height="26" as="geometry" />
        </mxCell>
        <mxCell id="CNBqglWwDLXEw6zcQ5sN-52" value="+ setCodigo(codigo : String) : void" style="text;strokeColor=none;fillColor=none;align=left;verticalAlign=top;spacingLeft=4;spacingRight=4;overflow=hidden;rotatable=0;points=[[0,0.5],[1,0.5]];portConstraint=eastwest;whiteSpace=wrap;html=1;" parent="CNBqglWwDLXEw6zcQ5sN-21" vertex="1">
          <mxGeometry y="398" width="290" height="26" as="geometry" />
        </mxCell>
        <mxCell id="CNBqglWwDLXEw6zcQ5sN-36" value="" style="edgeStyle=orthogonalEdgeStyle;rounded=0;orthogonalLoop=1;jettySize=auto;html=1;entryX=1;entryY=0.5;entryDx=0;entryDy=0;endArrow=open;endFill=0;" parent="1" source="CNBqglWwDLXEw6zcQ5sN-11" target="CNBqglWwDLXEw6zcQ5sN-29" edge="1">
          <mxGeometry relative="1" as="geometry" />
        </mxCell>
        <mxCell id="CNBqglWwDLXEw6zcQ5sN-37" value="Consumidor" style="swimlane;fontStyle=0;childLayout=stackLayout;horizontal=1;startSize=26;fillColor=none;horizontalStack=0;resizeParent=1;resizeParentMax=0;resizeLast=0;collapsible=1;marginBottom=0;whiteSpace=wrap;html=1;" parent="1" vertex="1">
          <mxGeometry x="1250" y="380" width="200" height="268" as="geometry" />
        </mxCell>
        <mxCell id="CNBqglWwDLXEw6zcQ5sN-38" value="- nome : String" style="text;strokeColor=none;fillColor=none;align=left;verticalAlign=top;spacingLeft=4;spacingRight=4;overflow=hidden;rotatable=0;points=[[0,0.5],[1,0.5]];portConstraint=eastwest;whiteSpace=wrap;html=1;" parent="CNBqglWwDLXEw6zcQ5sN-37" vertex="1">
          <mxGeometry y="26" width="200" height="26" as="geometry" />
        </mxCell>
        <mxCell id="CNBqglWwDLXEw6zcQ5sN-39" value="- idade : int" style="text;strokeColor=none;fillColor=none;align=left;verticalAlign=top;spacingLeft=4;spacingRight=4;overflow=hidden;rotatable=0;points=[[0,0.5],[1,0.5]];portConstraint=eastwest;whiteSpace=wrap;html=1;" parent="CNBqglWwDLXEw6zcQ5sN-37" vertex="1">
          <mxGeometry y="52" width="200" height="26" as="geometry" />
        </mxCell>
        <mxCell id="CNBqglWwDLXEw6zcQ5sN-40" value="- cpf : String" style="text;strokeColor=none;fillColor=none;align=left;verticalAlign=top;spacingLeft=4;spacingRight=4;overflow=hidden;rotatable=0;points=[[0,0.5],[1,0.5]];portConstraint=eastwest;whiteSpace=wrap;html=1;" parent="CNBqglWwDLXEw6zcQ5sN-37" vertex="1">
          <mxGeometry y="78" width="200" height="26" as="geometry" />
        </mxCell>
        <mxCell id="CNBqglWwDLXEw6zcQ5sN-41" value="" style="line;strokeWidth=1;fillColor=none;align=left;verticalAlign=middle;spacingTop=-1;spacingLeft=3;spacingRight=3;rotatable=0;labelPosition=right;points=[];portConstraint=eastwest;strokeColor=inherit;" parent="CNBqglWwDLXEw6zcQ5sN-37" vertex="1">
          <mxGeometry y="104" width="200" height="8" as="geometry" />
        </mxCell>
        <mxCell id="CNBqglWwDLXEw6zcQ5sN-42" value="+ getNome() : String" style="text;strokeColor=none;fillColor=none;align=left;verticalAlign=top;spacingLeft=4;spacingRight=4;overflow=hidden;rotatable=0;points=[[0,0.5],[1,0.5]];portConstraint=eastwest;whiteSpace=wrap;html=1;" parent="CNBqglWwDLXEw6zcQ5sN-37" vertex="1">
          <mxGeometry y="112" width="200" height="26" as="geometry" />
        </mxCell>
        <mxCell id="CNBqglWwDLXEw6zcQ5sN-43" value="+ setNome(nome : String) : void" style="text;strokeColor=none;fillColor=none;align=left;verticalAlign=top;spacingLeft=4;spacingRight=4;overflow=hidden;rotatable=0;points=[[0,0.5],[1,0.5]];portConstraint=eastwest;whiteSpace=wrap;html=1;" parent="CNBqglWwDLXEw6zcQ5sN-37" vertex="1">
          <mxGeometry y="138" width="200" height="26" as="geometry" />
        </mxCell>
        <mxCell id="CNBqglWwDLXEw6zcQ5sN-44" value="+ getIdade() : int" style="text;strokeColor=none;fillColor=none;align=left;verticalAlign=top;spacingLeft=4;spacingRight=4;overflow=hidden;rotatable=0;points=[[0,0.5],[1,0.5]];portConstraint=eastwest;whiteSpace=wrap;html=1;" parent="CNBqglWwDLXEw6zcQ5sN-37" vertex="1">
          <mxGeometry y="164" width="200" height="26" as="geometry" />
        </mxCell>
        <mxCell id="CNBqglWwDLXEw6zcQ5sN-45" value="+ setIdade(idade : int) : void" style="text;strokeColor=none;fillColor=none;align=left;verticalAlign=top;spacingLeft=4;spacingRight=4;overflow=hidden;rotatable=0;points=[[0,0.5],[1,0.5]];portConstraint=eastwest;whiteSpace=wrap;html=1;" parent="CNBqglWwDLXEw6zcQ5sN-37" vertex="1">
          <mxGeometry y="190" width="200" height="26" as="geometry" />
        </mxCell>
        <mxCell id="CNBqglWwDLXEw6zcQ5sN-46" value="+ getCpf() : String" style="text;strokeColor=none;fillColor=none;align=left;verticalAlign=top;spacingLeft=4;spacingRight=4;overflow=hidden;rotatable=0;points=[[0,0.5],[1,0.5]];portConstraint=eastwest;whiteSpace=wrap;html=1;" parent="CNBqglWwDLXEw6zcQ5sN-37" vertex="1">
          <mxGeometry y="216" width="200" height="26" as="geometry" />
        </mxCell>
        <mxCell id="CNBqglWwDLXEw6zcQ5sN-47" value="+ setCpf(cpf : String) : void" style="text;strokeColor=none;fillColor=none;align=left;verticalAlign=top;spacingLeft=4;spacingRight=4;overflow=hidden;rotatable=0;points=[[0,0.5],[1,0.5]];portConstraint=eastwest;whiteSpace=wrap;html=1;" parent="CNBqglWwDLXEw6zcQ5sN-37" vertex="1">
          <mxGeometry y="242" width="200" height="26" as="geometry" />
        </mxCell>
        <mxCell id="CNBqglWwDLXEw6zcQ5sN-63" value="Venda" style="swimlane;fontStyle=0;childLayout=stackLayout;horizontal=1;startSize=26;fillColor=none;horizontalStack=0;resizeParent=1;resizeParentMax=0;resizeLast=0;collapsible=1;marginBottom=0;whiteSpace=wrap;html=1;" parent="1" vertex="1">
          <mxGeometry x="865" y="60" width="310" height="268" as="geometry">
            <mxRectangle x="865" y="60" width="70" height="30" as="alternateBounds" />
          </mxGeometry>
        </mxCell>
        <mxCell id="CNBqglWwDLXEw6zcQ5sN-64" value="- jogo : Jogo" style="text;strokeColor=none;fillColor=none;align=left;verticalAlign=top;spacingLeft=4;spacingRight=4;overflow=hidden;rotatable=0;points=[[0,0.5],[1,0.5]];portConstraint=eastwest;whiteSpace=wrap;html=1;" parent="CNBqglWwDLXEw6zcQ5sN-63" vertex="1">
          <mxGeometry y="26" width="310" height="26" as="geometry" />
        </mxCell>
        <mxCell id="CNBqglWwDLXEw6zcQ5sN-65" value="- consumidor : Consumidor" style="text;strokeColor=none;fillColor=none;align=left;verticalAlign=top;spacingLeft=4;spacingRight=4;overflow=hidden;rotatable=0;points=[[0,0.5],[1,0.5]];portConstraint=eastwest;whiteSpace=wrap;html=1;" parent="CNBqglWwDLXEw6zcQ5sN-63" vertex="1">
          <mxGeometry y="52" width="310" height="26" as="geometry" />
        </mxCell>
        <mxCell id="CNBqglWwDLXEw6zcQ5sN-67" value="- qtde : int" style="text;strokeColor=none;fillColor=none;align=left;verticalAlign=top;spacingLeft=4;spacingRight=4;overflow=hidden;rotatable=0;points=[[0,0.5],[1,0.5]];portConstraint=eastwest;whiteSpace=wrap;html=1;" parent="CNBqglWwDLXEw6zcQ5sN-63" vertex="1">
          <mxGeometry y="78" width="310" height="26" as="geometry" />
        </mxCell>
        <mxCell id="CNBqglWwDLXEw6zcQ5sN-68" value="" style="line;strokeWidth=1;fillColor=none;align=left;verticalAlign=middle;spacingTop=-1;spacingLeft=3;spacingRight=3;rotatable=0;labelPosition=right;points=[];portConstraint=eastwest;strokeColor=inherit;" parent="CNBqglWwDLXEw6zcQ5sN-63" vertex="1">
          <mxGeometry y="104" width="310" height="8" as="geometry" />
        </mxCell>
        <mxCell id="CNBqglWwDLXEw6zcQ5sN-69" value="+ getJogo() : Jogo" style="text;strokeColor=none;fillColor=none;align=left;verticalAlign=top;spacingLeft=4;spacingRight=4;overflow=hidden;rotatable=0;points=[[0,0.5],[1,0.5]];portConstraint=eastwest;whiteSpace=wrap;html=1;" parent="CNBqglWwDLXEw6zcQ5sN-63" vertex="1">
          <mxGeometry y="112" width="310" height="26" as="geometry" />
        </mxCell>
        <mxCell id="CNBqglWwDLXEw6zcQ5sN-70" value="+ setJogo(jogo : Jogo) : void" style="text;strokeColor=none;fillColor=none;align=left;verticalAlign=top;spacingLeft=4;spacingRight=4;overflow=hidden;rotatable=0;points=[[0,0.5],[1,0.5]];portConstraint=eastwest;whiteSpace=wrap;html=1;" parent="CNBqglWwDLXEw6zcQ5sN-63" vertex="1">
          <mxGeometry y="138" width="310" height="26" as="geometry" />
        </mxCell>
        <mxCell id="CNBqglWwDLXEw6zcQ5sN-72" value="+ getConsumidor() : Consumidor" style="text;strokeColor=none;fillColor=none;align=left;verticalAlign=top;spacingLeft=4;spacingRight=4;overflow=hidden;rotatable=0;points=[[0,0.5],[1,0.5]];portConstraint=eastwest;whiteSpace=wrap;html=1;" parent="CNBqglWwDLXEw6zcQ5sN-63" vertex="1">
          <mxGeometry y="164" width="310" height="26" as="geometry" />
        </mxCell>
        <mxCell id="CNBqglWwDLXEw6zcQ5sN-73" value="+ setConsumidor(consumidor : Consumidor) : void" style="text;strokeColor=none;fillColor=none;align=left;verticalAlign=top;spacingLeft=4;spacingRight=4;overflow=hidden;rotatable=0;points=[[0,0.5],[1,0.5]];portConstraint=eastwest;whiteSpace=wrap;html=1;" parent="CNBqglWwDLXEw6zcQ5sN-63" vertex="1">
          <mxGeometry y="190" width="310" height="26" as="geometry" />
        </mxCell>
        <mxCell id="CNBqglWwDLXEw6zcQ5sN-74" value="+ getQtde() : int" style="text;strokeColor=none;fillColor=none;align=left;verticalAlign=top;spacingLeft=4;spacingRight=4;overflow=hidden;rotatable=0;points=[[0,0.5],[1,0.5]];portConstraint=eastwest;whiteSpace=wrap;html=1;" parent="CNBqglWwDLXEw6zcQ5sN-63" vertex="1">
          <mxGeometry y="216" width="310" height="26" as="geometry" />
        </mxCell>
        <mxCell id="CNBqglWwDLXEw6zcQ5sN-75" value="+ setQtde(qtde : int) : void" style="text;strokeColor=none;fillColor=none;align=left;verticalAlign=top;spacingLeft=4;spacingRight=4;overflow=hidden;rotatable=0;points=[[0,0.5],[1,0.5]];portConstraint=eastwest;whiteSpace=wrap;html=1;" parent="CNBqglWwDLXEw6zcQ5sN-63" vertex="1">
          <mxGeometry y="242" width="310" height="26" as="geometry" />
        </mxCell>
        <mxCell id="CNBqglWwDLXEw6zcQ5sN-76" style="edgeStyle=orthogonalEdgeStyle;rounded=0;orthogonalLoop=1;jettySize=auto;html=1;exitX=0;exitY=0.5;exitDx=0;exitDy=0;entryX=0.5;entryY=0;entryDx=0;entryDy=0;endArrow=open;endFill=0;" parent="1" source="CNBqglWwDLXEw6zcQ5sN-69" target="CNBqglWwDLXEw6zcQ5sN-21" edge="1">
          <mxGeometry relative="1" as="geometry" />
        </mxCell>
        <mxCell id="CNBqglWwDLXEw6zcQ5sN-78" style="edgeStyle=orthogonalEdgeStyle;rounded=0;orthogonalLoop=1;jettySize=auto;html=1;exitX=1;exitY=0.5;exitDx=0;exitDy=0;entryX=0.5;entryY=0;entryDx=0;entryDy=0;endArrow=open;endFill=0;" parent="1" source="CNBqglWwDLXEw6zcQ5sN-69" target="CNBqglWwDLXEw6zcQ5sN-37" edge="1">
          <mxGeometry relative="1" as="geometry" />
        </mxCell>
        <mxCell id="CNBqglWwDLXEw6zcQ5sN-80" style="edgeStyle=orthogonalEdgeStyle;rounded=0;orthogonalLoop=1;jettySize=auto;html=1;entryX=0.5;entryY=1.021;entryDx=0;entryDy=0;entryPerimeter=0;endArrow=none;endFill=0;startArrow=open;startFill=0;" parent="1" source="CNBqglWwDLXEw6zcQ5sN-1" target="CNBqglWwDLXEw6zcQ5sN-75" edge="1">
          <mxGeometry relative="1" as="geometry" />
        </mxCell>
        <mxCell id="Ngj1m-gb0Dm6TkO7yJsu-1" value="Menu" style="swimlane;fontStyle=1;align=center;verticalAlign=top;childLayout=stackLayout;horizontal=1;startSize=26;horizontalStack=0;resizeParent=1;resizeParentMax=0;resizeLast=0;collapsible=1;marginBottom=0;whiteSpace=wrap;html=1;" parent="1" vertex="1">
          <mxGeometry x="1230" y="720" width="240" height="268" as="geometry" />
        </mxCell>
        <mxCell id="Ngj1m-gb0Dm6TkO7yJsu-23" value="- loja : Loja" style="text;strokeColor=none;fillColor=none;align=left;verticalAlign=top;spacingLeft=4;spacingRight=4;overflow=hidden;rotatable=0;points=[[0,0.5],[1,0.5]];portConstraint=eastwest;whiteSpace=wrap;html=1;" parent="Ngj1m-gb0Dm6TkO7yJsu-1" vertex="1">
          <mxGeometry y="26" width="240" height="26" as="geometry" />
        </mxCell>
        <mxCell id="Ngj1m-gb0Dm6TkO7yJsu-3" value="" style="line;strokeWidth=1;fillColor=none;align=left;verticalAlign=middle;spacingTop=-1;spacingLeft=3;spacingRight=3;rotatable=0;labelPosition=right;points=[];portConstraint=eastwest;strokeColor=inherit;" parent="Ngj1m-gb0Dm6TkO7yJsu-1" vertex="1">
          <mxGeometry y="52" width="240" height="8" as="geometry" />
        </mxCell>
        <mxCell id="Ngj1m-gb0Dm6TkO7yJsu-6" value="+&amp;nbsp;realizarVenda() : void" style="text;strokeColor=none;fillColor=none;align=left;verticalAlign=top;spacingLeft=4;spacingRight=4;overflow=hidden;rotatable=0;points=[[0,0.5],[1,0.5]];portConstraint=eastwest;whiteSpace=wrap;html=1;" parent="Ngj1m-gb0Dm6TkO7yJsu-1" vertex="1">
          <mxGeometry y="60" width="240" height="26" as="geometry" />
        </mxCell>
        <mxCell id="Ngj1m-gb0Dm6TkO7yJsu-9" value="+ emitirNotaFiscal() : void" style="text;strokeColor=none;fillColor=none;align=left;verticalAlign=top;spacingLeft=4;spacingRight=4;overflow=hidden;rotatable=0;points=[[0,0.5],[1,0.5]];portConstraint=eastwest;whiteSpace=wrap;html=1;" parent="Ngj1m-gb0Dm6TkO7yJsu-1" vertex="1">
          <mxGeometry y="86" width="240" height="26" as="geometry" />
        </mxCell>
        <mxCell id="Ngj1m-gb0Dm6TkO7yJsu-10" value="+&amp;nbsp;removerJogo() : void" style="text;strokeColor=none;fillColor=none;align=left;verticalAlign=top;spacingLeft=4;spacingRight=4;overflow=hidden;rotatable=0;points=[[0,0.5],[1,0.5]];portConstraint=eastwest;whiteSpace=wrap;html=1;" parent="Ngj1m-gb0Dm6TkO7yJsu-1" vertex="1">
          <mxGeometry y="112" width="240" height="26" as="geometry" />
        </mxCell>
        <mxCell id="Ngj1m-gb0Dm6TkO7yJsu-11" value="+&amp;nbsp;removerCliente() : void" style="text;strokeColor=none;fillColor=none;align=left;verticalAlign=top;spacingLeft=4;spacingRight=4;overflow=hidden;rotatable=0;points=[[0,0.5],[1,0.5]];portConstraint=eastwest;whiteSpace=wrap;html=1;" parent="Ngj1m-gb0Dm6TkO7yJsu-1" vertex="1">
          <mxGeometry y="138" width="240" height="26" as="geometry" />
        </mxCell>
        <mxCell id="Ngj1m-gb0Dm6TkO7yJsu-12" value="+ ConsultarClientePorCPF() : void" style="text;strokeColor=none;fillColor=none;align=left;verticalAlign=top;spacingLeft=4;spacingRight=4;overflow=hidden;rotatable=0;points=[[0,0.5],[1,0.5]];portConstraint=eastwest;whiteSpace=wrap;html=1;" parent="Ngj1m-gb0Dm6TkO7yJsu-1" vertex="1">
          <mxGeometry y="164" width="240" height="26" as="geometry" />
        </mxCell>
        <mxCell id="Ngj1m-gb0Dm6TkO7yJsu-13" value="+ consultarJogoPorNome() : void" style="text;strokeColor=none;fillColor=none;align=left;verticalAlign=top;spacingLeft=4;spacingRight=4;overflow=hidden;rotatable=0;points=[[0,0.5],[1,0.5]];portConstraint=eastwest;whiteSpace=wrap;html=1;" parent="Ngj1m-gb0Dm6TkO7yJsu-1" vertex="1">
          <mxGeometry y="190" width="240" height="26" as="geometry" />
        </mxCell>
        <mxCell id="Ngj1m-gb0Dm6TkO7yJsu-14" value="+&amp;nbsp;consultarJogoPorCodigo() : void" style="text;strokeColor=none;fillColor=none;align=left;verticalAlign=top;spacingLeft=4;spacingRight=4;overflow=hidden;rotatable=0;points=[[0,0.5],[1,0.5]];portConstraint=eastwest;whiteSpace=wrap;html=1;" parent="Ngj1m-gb0Dm6TkO7yJsu-1" vertex="1">
          <mxGeometry y="216" width="240" height="26" as="geometry" />
        </mxCell>
        <mxCell id="Ngj1m-gb0Dm6TkO7yJsu-15" value="+&amp;nbsp;&lt;span style=&quot;background-color: initial;&quot;&gt;exibirTodosOsJogos() : void&lt;/span&gt;" style="text;strokeColor=none;fillColor=none;align=left;verticalAlign=top;spacingLeft=4;spacingRight=4;overflow=hidden;rotatable=0;points=[[0,0.5],[1,0.5]];portConstraint=eastwest;whiteSpace=wrap;html=1;" parent="Ngj1m-gb0Dm6TkO7yJsu-1" vertex="1">
          <mxGeometry y="242" width="240" height="26" as="geometry" />
        </mxCell>
        <mxCell id="Ngj1m-gb0Dm6TkO7yJsu-17" style="edgeStyle=orthogonalEdgeStyle;rounded=0;orthogonalLoop=1;jettySize=auto;html=1;entryX=0;entryY=0.5;entryDx=0;entryDy=0;endArrow=open;endFill=0;" parent="1" source="CNBqglWwDLXEw6zcQ5sN-10" target="CNBqglWwDLXEw6zcQ5sN-45" edge="1">
          <mxGeometry relative="1" as="geometry" />
        </mxCell>
        <mxCell id="Ngj1m-gb0Dm6TkO7yJsu-24" style="edgeStyle=orthogonalEdgeStyle;rounded=0;orthogonalLoop=1;jettySize=auto;html=1;entryX=1;entryY=0.5;entryDx=0;entryDy=0;endArrow=open;endFill=0;" parent="1" source="Ngj1m-gb0Dm6TkO7yJsu-10" target="CNBqglWwDLXEw6zcQ5sN-53" edge="1">
          <mxGeometry relative="1" as="geometry">
            <Array as="points">
              <mxPoint x="1220" y="843" />
              <mxPoint x="1220" y="843" />
            </Array>
          </mxGeometry>
        </mxCell>
      </root>
    </mxGraphModel>
  </diagram>
</mxfile>
